<?xml version="1.0" encoding="utf-8"?>
<!-- Generator: Adobe Illustrator 21.0.0, SVG Export Plug-In . SVG Version: 6.00 Build 0)  -->
<svg version="1.1" id="Layer_1" xmlns="http://www.w3.org/2000/svg" xmlns:xlink="http://www.w3.org/1999/xlink" x="0px" y="0px"
	 viewBox="0 0 512 512" style="enable-background:new 0 0 512 512;" xml:space="preserve">
<style type="text/css">
	.st0{fill:#D9ECF2;}
	.st1{fill:#BDD9E5;}
	.st2{fill:#26A3B9;}
	.st3{fill:#168AA5;}
</style>
<path class="st0" d="M466,214.1c0.3,38.5-20.1,74.1-53.4,93.4c-33.3,19.3-74.3,19.3-107.6,0c-33.3-19.3-53.6-55-53.4-93.4
	C251.7,154.9,358.9,0,358.9,0S466,154.9,466,214.1z"/>
<path class="st1" d="M358.8,0c0,0-6.5,9.4-16.2,24.3c30,46,91,145.1,91,189.8c0,52.9-38.7,97.9-91,106c30.9,4.7,62.3-4.3,86-24.7
	c23.7-20.4,37.4-50,37.4-81.3C466,154.9,358.8,0,358.8,0z"/>
<path class="st1" d="M307.4,81.2c-27.5,46.9-55.8,102.5-55.8,132.9c0,39.8,22,76.3,57.2,94.8s77.7,16.1,110.5-6.4
	C400.9,238.2,348,146.3,307.4,81.2z"/>
<path class="st2" d="M386.3,342.1c0,93.8-76.1,169.9-169.9,169.9S46.5,435.9,46.5,342.1S216.4,2.7,216.4,2.7
	S386.3,248.2,386.3,342.1z"/>
<g>
	<path class="st3" d="M323.5,228l23.5,23.5L156.6,442l-23.5-23.5L323.5,228z"/>
	<path class="st3" d="M200.6,239.6c12.9,12.9,12.9,33.8,0,46.7c-12.9,12.9-33.8,12.9-46.7,0c-12.9-12.9-12.9-33.8,0-46.7
		C166.8,226.7,187.7,226.7,200.6,239.6z"/>
	<path class="st3" d="M326.3,383.8c12.9,12.9,12.9,33.8,0,46.7c-12.9,12.9-33.8,12.9-46.7,0s-12.9-33.8,0-46.7
		S313.4,370.9,326.3,383.8z"/>
	<path class="st3" d="M216.4,2.7c0,0-9.5,13.7-23.9,35.8c46.8,71.6,146,231.9,146,303.6c0,84.6-62.2,156.3-146,168.2
		c48.8,7,98.1-7.6,135.3-39.8c37.2-32.3,58.5-79.1,58.5-128.4C386.3,248.2,216.4,2.7,216.4,2.7z"/>
</g>
<path class="st0" d="M299.9,228l23.5,23.5L132.9,442l-23.5-23.5L299.9,228z"/>
<path class="st0" d="M176.9,239.6c12.9,12.9,12.9,33.8,0,46.7c-12.9,12.9-33.8,12.9-46.7,0c-12.9-12.9-12.9-33.8,0-46.7
	C143.1,226.7,164,226.7,176.9,239.6z"/>
<path class="st0" d="M302.6,383.8c12.9,12.9,12.9,33.8,0,46.7s-33.8,12.9-46.7,0s-12.9-33.8,0-46.7S289.7,370.9,302.6,383.8z"/>
</svg>
