<?xml version="1.0" encoding="iso-8859-1"?>
<!-- Generator: Adobe Illustrator 19.0.0, SVG Export Plug-In . SVG Version: 6.00 Build 0)  -->
<svg version="1.1" id="Layer_1" xmlns="http://www.w3.org/2000/svg" xmlns:xlink="http://www.w3.org/1999/xlink" x="0px" y="0px"
	 viewBox="0 0 512 512" style="enable-background:new 0 0 512 512;" xml:space="preserve">
<path style="fill:#73C9C9;" d="M241.946,378.182c-0.845,0-1.682,0.027-2.509,0.064c-2.573,0.155-5.027-0.809-6.864-2.564
	c-1.836-1.755-2.882-4.191-2.882-6.736c0-36.645-31.491-66.4-70.2-66.4c-30.782,0-57.682,18.618-66.954,46.327
	c-1.382,4.1-5.482,6.8-9.709,6.309c-1.909-0.182-3.836-0.273-5.791-0.273c-32.209,0-58.418,25.836-58.418,57.6
	c0,32.6,27.773,58.818,60.954,57.545c0.482-0.036,1.009-0.009,1.518,0.054H243.71c0.227-0.027,0.455-0.045,0.682-0.064
	c24.782-1.255,44.191-21.418,44.191-45.9C288.582,398.8,267.664,378.182,241.946,378.182z"/>
<path style="fill:#81A4E3;" d="M267.61,209.391c0.227,0.018,0.464,0.036,0.691,0.064h162.636c0.354-0.045,0.709-0.064,1.073-0.064
	c0.136,0,0.282,0,0.418,0.009c33.045,1.445,60.945-24.946,60.954-57.545c0-31.764-26.209-57.6-58.418-57.6
	c-1.954,0-3.891,0.091-5.791,0.273c-4.182,0.364-8.336-2.191-9.709-6.309c-9.273-27.709-36.172-46.328-66.954-46.328
	c-38.709,0-70.2,29.755-70.2,66.327c0,2.546-1.045,5.018-2.882,6.773c-1.846,1.755-4.336,2.727-6.864,2.6
	c-0.827-0.036-1.664-0.064-2.509-0.064c-25.718,0-46.636,20.618-46.636,45.964C223.419,187.973,242.828,208.137,267.61,209.391z"/>
<g>
	<path style="fill:#314E55;" d="M247.81,359.818c-4.736-42.6-42.536-75.891-88.318-75.891c-36.3,0-68.4,20.773-82.054,52.364
		c-0.136,0-0.264,0-0.4,0c-42.482,0-77.036,34.191-77.036,76.218c0,42.027,34.555,76.218,77.036,76.218
		c0.736,0,1.473-0.009,2.2-0.027c0.246,0.018,0.5,0.027,0.745,0.027h164.9c0.573,0,1.136-0.054,1.691-0.164
		c34.1-2.364,60.627-30.427,60.627-64.418C307.2,390.491,281.055,362.764,247.81,359.818z M244.392,470.045
		c-0.227,0.018-0.454,0.036-0.682,0.064H81.092c-0.509-0.064-1.036-0.091-1.518-0.054c-33.182,1.273-60.955-24.946-60.955-57.545
		c0-31.764,26.209-57.6,58.418-57.6c1.954,0,3.882,0.091,5.791,0.273c4.227,0.491,8.327-2.209,9.709-6.309
		c9.273-27.709,36.172-46.327,66.954-46.327c38.709,0,70.2,29.755,70.2,66.4c0,2.546,1.045,4.982,2.882,6.736
		c1.836,1.755,4.291,2.718,6.864,2.564c0.827-0.036,1.664-0.064,2.509-0.064c25.718,0,46.636,20.618,46.636,45.964
		C288.582,448.627,269.173,468.791,244.392,470.045z"/>
	<path style="fill:#314E55;" d="M265.373,227.909c0.573,0.109,1.145,0.164,1.736,0.164h164.909c0.246,0,0.5-0.009,0.745-0.027
		c0.727,0.018,1.464,0.027,2.2,0.027c42.482,0,77.036-34.191,77.036-76.218s-34.555-76.218-77.036-76.218c-0.136,0-0.264,0-0.4,0
		c-13.655-31.591-45.755-52.364-82.054-52.364c-45.755,0-83.545,33.264-88.309,75.891c-33.245,2.945-59.4,30.673-59.4,64.327
		C204.801,197.473,231.301,225.527,265.373,227.909z M270.055,117.528c0.845,0,1.682,0.027,2.509,0.064
		c2.527,0.127,5.018-0.845,6.864-2.6c1.836-1.755,2.882-4.227,2.882-6.773c0-36.573,31.491-66.327,70.2-66.327
		c30.782,0,57.682,18.618,66.954,46.327c1.373,4.118,5.527,6.673,9.709,6.309c1.9-0.182,3.836-0.273,5.791-0.273
		c32.209,0,58.418,25.836,58.418,57.6c-0.009,32.6-27.909,58.991-60.954,57.545c-0.137-0.009-0.282-0.009-0.418-0.009
		c-0.364,0-0.718,0.018-1.073,0.064H268.301c-0.227-0.027-0.464-0.045-0.691-0.064c-24.782-1.255-44.191-21.418-44.191-45.9
		C223.419,138.146,244.337,117.528,270.055,117.528z"/>
	<path style="fill:#314E55;" d="M164.865,225.728l-91.391,12.136c-5.091,0.673-8.682,5.355-8,10.455
		c0.618,4.682,4.618,8.082,9.218,8.082c0.409,0,0.818-0.027,1.236-0.082l101.881-13.527c2.654-0.354,5.027-1.827,6.509-4.055
		c1.491-2.218,1.945-4.982,1.264-7.564l-26.236-98.681c-1.327-4.973-6.427-7.918-11.391-6.609
		c-4.973,1.327-7.927,6.427-6.609,11.391L164.865,225.728z"/>
	<path style="fill:#314E55;" d="M9.301,219.164c0.409,0,0.818-0.027,1.236-0.082l101.891-13.527
		c2.654-0.354,5.027-1.827,6.509-4.055c1.491-2.218,1.945-4.982,1.264-7.564L93.965,95.255c-1.318-4.973-6.418-7.891-11.391-6.609
		c-4.973,1.327-7.927,6.427-6.609,11.391l23.518,88.454l-91.4,12.136c-5.091,0.673-8.682,5.355-8,10.455
		C0.701,215.764,4.701,219.164,9.301,219.164z"/>
	<path style="fill:#314E55;" d="M328.737,305.291l91.4-12.136c5.091-0.673,8.682-5.355,8-10.455c-0.673-5.1-5.364-8.682-10.455-8
		l-101.891,13.527c-2.654,0.354-5.027,1.827-6.509,4.055c-1.491,2.218-1.945,4.982-1.264,7.564l26.236,98.672
		c1.109,4.173,4.873,6.918,8.991,6.918c0.791,0,1.6-0.1,2.4-0.309c4.973-1.327,7.927-6.427,6.609-11.391L328.737,305.291z"/>
	<path style="fill:#314E55;" d="M482.846,330.555l-101.891,13.527c-2.654,0.354-5.027,1.827-6.509,4.055
		c-1.491,2.218-1.945,4.982-1.264,7.564l26.236,98.672c1.109,4.173,4.873,6.918,8.991,6.918c0.791,0,1.6-0.1,2.4-0.309
		c4.973-1.327,7.927-6.427,6.609-11.391L393.9,361.146l91.4-12.136c5.091-0.673,8.682-5.355,8-10.455
		C492.627,333.454,487.946,329.9,482.846,330.555z"/>
</g>
<g>
</g>
<g>
</g>
<g>
</g>
<g>
</g>
<g>
</g>
<g>
</g>
<g>
</g>
<g>
</g>
<g>
</g>
<g>
</g>
<g>
</g>
<g>
</g>
<g>
</g>
<g>
</g>
<g>
</g>
</svg>
