<?xml version="1.0" encoding="utf-8"?>
<!-- Generator: Adobe Illustrator 21.0.0, SVG Export Plug-In . SVG Version: 6.00 Build 0)  -->
<svg version="1.1" id="Layer_1" xmlns="http://www.w3.org/2000/svg" xmlns:xlink="http://www.w3.org/1999/xlink" x="0px" y="0px"
	 viewBox="0 0 512 512" style="enable-background:new 0 0 512 512;" xml:space="preserve">
<style type="text/css">
	.st0{fill:#73C9C9;}
	.st1{fill:#81A4E3;}
	.st2{fill:#FFFFFF;}
</style>
<path class="st0" d="M241.9,378.2c-0.8,0-1.7,0-2.5,0.1c-2.6,0.2-5-0.8-6.9-2.6c-1.8-1.8-2.9-4.2-2.9-6.7
	c0-36.6-31.5-66.4-70.2-66.4c-30.8,0-57.7,18.6-67,46.3c-1.4,4.1-5.5,6.8-9.7,6.3c-1.9-0.2-3.8-0.3-5.8-0.3
	c-32.2,0-58.4,25.8-58.4,57.6c0,32.6,27.8,58.8,61,57.5c0.5,0,1,0,1.5,0.1h162.6c0.2,0,0.5,0,0.7-0.1c24.8-1.3,44.2-21.4,44.2-45.9
	C288.6,398.8,267.7,378.2,241.9,378.2z"/>
<path class="st1" d="M267.6,209.4c0.2,0,0.5,0,0.7,0.1h162.6c0.4,0,0.7-0.1,1.1-0.1c0.1,0,0.3,0,0.4,0c33,1.4,60.9-24.9,61-57.5
	c0-31.8-26.2-57.6-58.4-57.6c-2,0-3.9,0.1-5.8,0.3c-4.2,0.4-8.3-2.2-9.7-6.3c-9.3-27.7-36.2-46.3-67-46.3
	c-38.7,0-70.2,29.8-70.2,66.3c0,2.5-1,5-2.9,6.8c-1.8,1.8-4.3,2.7-6.9,2.6c-0.8,0-1.7-0.1-2.5-0.1c-25.7,0-46.6,20.6-46.6,46
	C223.4,188,242.8,208.1,267.6,209.4z"/>
<path class="st2" d="M247.8,359.8c-4.7-42.6-42.5-75.9-88.3-75.9c-36.3,0-68.4,20.8-82.1,52.4c-0.1,0-0.3,0-0.4,0
	c-42.5,0-77,34.2-77,76.2s34.6,76.2,77,76.2c0.7,0,1.5,0,2.2,0c0.2,0,0.5,0,0.7,0h164.9c0.6,0,1.1-0.1,1.7-0.2
	c34.1-2.4,60.6-30.4,60.6-64.4C307.2,390.5,281.1,362.8,247.8,359.8z M244.4,470c-0.2,0-0.5,0-0.7,0.1H81.1c-0.5-0.1-1-0.1-1.5-0.1
	c-33.2,1.3-61-24.9-61-57.5c0-31.8,26.2-57.6,58.4-57.6c2,0,3.9,0.1,5.8,0.3c4.2,0.5,8.3-2.2,9.7-6.3c9.3-27.7,36.2-46.3,67-46.3
	c38.7,0,70.2,29.8,70.2,66.4c0,2.5,1,5,2.9,6.7c1.8,1.8,4.3,2.7,6.9,2.6c0.8,0,1.7-0.1,2.5-0.1c25.7,0,46.6,20.6,46.6,46
	C288.6,448.6,269.2,468.8,244.4,470z"/>
<path class="st2" d="M265.4,227.9c0.6,0.1,1.1,0.2,1.7,0.2H432c0.2,0,0.5,0,0.7,0c0.7,0,1.5,0,2.2,0c42.5,0,77-34.2,77-76.2
	s-34.6-76.2-77-76.2c-0.1,0-0.3,0-0.4,0c-13.7-31.6-45.8-52.4-82.1-52.4c-45.8,0-83.5,33.3-88.3,75.9c-33.2,2.9-59.4,30.7-59.4,64.3
	C204.8,197.5,231.3,225.5,265.4,227.9z M270.1,117.5c0.8,0,1.7,0,2.5,0.1c2.5,0.1,5-0.8,6.9-2.6c1.8-1.8,2.9-4.2,2.9-6.8
	c0-36.6,31.5-66.3,70.2-66.3c30.8,0,57.7,18.6,67,46.3c1.4,4.1,5.5,6.7,9.7,6.3c1.9-0.2,3.8-0.3,5.8-0.3c32.2,0,58.4,25.8,58.4,57.6
	c0,32.6-27.9,59-61,57.5c-0.1,0-0.3,0-0.4,0c-0.4,0-0.7,0-1.1,0.1H268.3c-0.2,0-0.5,0-0.7-0.1c-24.8-1.3-44.2-21.4-44.2-45.9
	C223.4,138.1,244.3,117.5,270.1,117.5z"/>
<path class="st2" d="M164.9,225.7l-91.4,12.1c-5.1,0.7-8.7,5.4-8,10.5c0.6,4.7,4.6,8.1,9.2,8.1c0.4,0,0.8,0,1.2-0.1l101.9-13.5
	c2.7-0.4,5-1.8,6.5-4.1c1.5-2.2,1.9-5,1.3-7.6l-26.2-98.7c-1.3-5-6.4-7.9-11.4-6.6c-5,1.3-7.9,6.4-6.6,11.4L164.9,225.7z"/>
<path class="st2" d="M9.3,219.2c0.4,0,0.8,0,1.2-0.1l101.9-13.5c2.7-0.4,5-1.8,6.5-4.1c1.5-2.2,1.9-5,1.3-7.6L94,95.3
	c-1.3-5-6.4-7.9-11.4-6.6c-5,1.3-7.9,6.4-6.6,11.4l23.5,88.5L8.1,200.6c-5.1,0.7-8.7,5.4-8,10.5C0.7,215.8,4.7,219.2,9.3,219.2z"/>
<path class="st2" d="M328.7,305.3l91.4-12.1c5.1-0.7,8.7-5.4,8-10.5c-0.7-5.1-5.4-8.7-10.5-8l-101.9,13.5c-2.7,0.4-5,1.8-6.5,4.1
	c-1.5,2.2-1.9,5-1.3,7.6l26.2,98.7c1.1,4.2,4.9,6.9,9,6.9c0.8,0,1.6-0.1,2.4-0.3c5-1.3,7.9-6.4,6.6-11.4L328.7,305.3z"/>
<path class="st2" d="M482.8,330.6L381,344.1c-2.7,0.4-5,1.8-6.5,4.1c-1.5,2.2-1.9,5-1.3,7.6l26.2,98.7c1.1,4.2,4.9,6.9,9,6.9
	c0.8,0,1.6-0.1,2.4-0.3c5-1.3,7.9-6.4,6.6-11.4l-23.5-88.4l91.4-12.1c5.1-0.7,8.7-5.4,8-10.5C492.6,333.5,487.9,329.9,482.8,330.6z"
	/>
</svg>
